# xmcd CD database file
#
# Track frame offsets:
#	150
#	18795
#	40250
#	67265
#	73140
#	94247
#	115702
#	127282
#	148685
#	183452
#
# Disc length: 2587 seconds
#
# Revision: 0
# Processed by: cddbd v1.4PL0 Copyright (c) Steve Scherf et al.
# Submitted via: Feurio! 1.63.1ß - http://www.feurio.com
#
DISCID=980a190a
DTITLE=Court And Spark - Bless You
DYEAR=1900
DGENRE=Alternative
TTITLE0=To See The Fires
TTITLE1=Rooster Mountain
TTITLE2=National Lights
TTITLE3=The Lone Palm
TTITLE4=Fireworks
TTITLE5=A.M. Radio
TTITLE6=Marlborough Sound
TTITLE7=Pearly Gates
TTITLE8=Fade Out To Little Arrow
TTITLE9=In A Sugarpine Bed
EXTD=
EXTT0=
EXTT1=
EXTT2=
EXTT3=
EXTT4=
EXTT5=
EXTT6=
EXTT7=
EXTT8=
EXTT9=
PLAYORDER=
